<svg width="121" height="15" viewBox="0 0 121 15" fill="none" xmlns="http://www.w3.org/2000/svg">
<g clip-path="url(#clip0_57_5342)">
<path d="M2.44235 3.4082H0V14.9028H2.44235V3.4082Z" fill="white"/>
<path d="M2.44235 0.0976562H0V2.38026H2.44235V0.0976562Z" fill="#FFF09D"/>
<path d="M80.8692 4.66229C80.8692 7.18947 78.8578 9.24381 76.3835 9.24381H73.3505V14.9014H70.9082V7.22207H76.0483C77.3573 7.22207 78.4108 6.14599 78.4108 4.80903C78.4108 3.47207 77.3573 2.39599 76.0483 2.39599H70.9082V0.113378H76.3835C78.8578 0.097074 80.8692 2.13512 80.8692 4.66229Z" fill="white"/>
<path d="M111.63 8.03711H109.188V14.9012H111.63V8.03711Z" fill="white"/>
<path d="M17.432 0.0976562V14.902H16.57L14.9897 13.1248L14.6545 12.7335L10.6637 8.23353L8.87583 6.19548L8.18942 5.42918V14.902H5.74707V0.0976562H6.43348L8.18942 2.07048L8.46079 2.38027L9.37068 3.40744L11.845 6.19548L13.6488 8.23353L14.9897 9.74983V0.0976562H17.432Z" fill="white"/>
<path d="M31.2396 0.0976562V2.38027H26.6582V14.902H24.2159V2.38027H19.6025V0.0976562H31.2396Z" fill="white"/>
<path d="M35.8213 6.19548H41.0092V8.23353H35.8213V12.7335H42.7173V14.902H33.3789V0.0976562H42.7173V2.38027H35.8213V6.19548Z" fill="white"/>
<path d="M52.8857 8.8694C54.482 8.16831 55.5835 6.55418 55.5835 4.66287C55.5835 2.1357 53.5721 0.0976562 51.1138 0.0976562H45.4629V14.902H47.9052V9.2444H50.619L54.4661 14.902H56.9882L52.8857 8.8694ZM47.9052 7.22266V2.38027H50.7786C52.0876 2.38027 53.1411 3.45635 53.1411 4.79331C53.1411 5.46179 52.8698 6.06505 52.4547 6.50527C52.2312 6.73353 51.9599 6.92918 51.6566 7.04331C51.3852 7.15744 51.0979 7.20635 50.7946 7.20635H47.9052V7.22266Z" fill="white"/>
<path d="M107.224 14.9013H104.701L103.233 12.7328L100.854 9.22741H98.1406V14.885H95.6982V7.22198H101.014C101.317 7.22198 101.621 7.15676 101.876 7.05893C102.179 6.9285 102.451 6.74915 102.674 6.52089C102.77 6.42306 102.85 6.32524 102.93 6.21111C103.201 5.8198 103.376 5.33067 103.376 4.80893C103.376 4.28719 103.217 3.81437 102.945 3.42306C102.514 2.8035 101.812 2.39589 101.014 2.39589H95.6982V0.113281H101.349C103.009 0.113281 104.462 1.02632 105.228 2.39589C105.42 2.72198 105.547 3.06437 105.659 3.42306C105.771 3.83067 105.835 4.23828 105.835 4.6785C105.835 5.21654 105.739 5.73828 105.579 6.21111C105.452 6.5698 105.276 6.91219 105.069 7.22198C104.813 7.61328 104.51 7.93937 104.159 8.23285C103.839 8.49372 103.504 8.70567 103.121 8.86872L103.376 9.24372L105.755 12.7492L107.224 14.9013Z" fill="white"/>
<path d="M111.63 0.0976562H109.188V6.21179H111.63V0.0976562Z" fill="white"/>
<path d="M121 14.902H118.223L116.355 12.7335L113.354 9.2444L113.098 8.95092L112.476 8.23353L112.093 7.777V6.70092L112.524 6.19548L113.019 5.62483L114.918 3.40744L115.812 2.38027L117.776 0.0976562H120.729L118.749 2.38027L117.871 3.40744L115.477 6.19548L114.599 7.22266L114.487 7.33679L115.253 8.23353L116.131 9.2444L119.132 12.7335L121 14.902Z" fill="white"/>
<path d="M93.7188 14.902H91.2764L90.3825 12.7335L88.9299 9.2444L88.5148 8.23353L88.0838 7.22266L87.6688 6.19548L87.0462 4.69548L86.4237 6.19548L86.0086 7.22266L85.5936 8.23353L85.1786 9.2444L83.7259 12.7335L82.832 14.902H80.3896L80.8685 13.7444L81.2836 12.7335L82.7362 9.2444L83.1513 8.23353L83.5663 7.22266L83.9973 6.19548L85.1466 3.40744L85.5776 2.38027L85.8331 1.7607L86.5195 0.0976562H87.589L88.2754 1.7607L88.5308 2.38027L88.9458 3.40744L90.1111 6.19548L90.5262 7.22266L90.9572 8.23353L91.3722 9.2444L92.8249 12.7335L93.7188 14.902Z" fill="white"/>
<path d="M68.0347 10.7773C68.0347 12.6196 66.8693 14.9023 63.2298 14.9023C59.6062 14.9023 57.9141 12.1631 57.9141 12.1631L59.5423 10.6142C59.5423 10.6142 60.5799 12.8153 63.0861 12.8153C65.5923 12.8153 66.9013 10.011 63.8044 8.83704C63.7246 8.80443 63.6608 8.78813 63.581 8.75552L65.7519 7.07617C67.46 8.15226 68.0347 9.4403 68.0347 10.7773Z" fill="white"/>
<path d="M67.8271 2.7224L66.1989 3.97784C66.1989 3.97784 65.273 2.38001 63.2776 2.38001C61.2822 2.38001 59.7977 4.82566 63.3734 6.01588C63.4213 6.03218 63.4692 6.04849 63.5171 6.06479L61.394 7.72784C59.7498 6.74958 58.792 5.57566 58.792 4.2061C58.792 2.26588 59.9413 0.244141 63.118 0.244141C66.2946 0.244141 67.8271 2.7224 67.8271 2.7224Z" fill="white"/>
</g>
<defs>
<clipPath id="clip0_57_5342">
<rect width="121" height="15" fill="white"/>
</clipPath>
</defs>
</svg>
